<?xml version="1.0" encoding="UTF-8"?>
<svg id="_图层_2" data-name="图层 2" xmlns="http://www.w3.org/2000/svg" viewBox="0 0 142.58 51.73">
  <defs>
    <style>
      .cls-1 {
        font-family: Bahnschrift-Light, Bahnschrift;
        font-size: 10px;
        font-variation-settings: 'wght' 300, 'wdth' 100;
        font-weight: 300;
      }

      .cls-1, .cls-2 {
        fill: #231815;
      }
    </style>
  </defs>
  <g id="_图层_1-2" data-name="图层 1">
    <rect class="cls-2" y="26.84" width="8.95" height="8.95"/>
    <rect class="cls-2" y="17.89" width="8.95" height="8.95"/>
    <rect class="cls-2" y="8.95" width="8.95" height="8.95"/>
    <rect class="cls-2" width="8.95" height="8.95"/>
    <rect class="cls-2" x="9.88" y="8.95" width="8.95" height="8.95"/>
    <rect class="cls-2" x="9.88" width="8.95" height="8.95"/>
    <rect class="cls-2" x="19.75" y="26.84" width="8.95" height="8.95"/>
    <rect class="cls-2" x="19.75" y="17.89" width="8.95" height="8.95"/>
    <rect class="cls-2" x="19.75" y="8.95" width="8.95" height="8.95"/>
    <rect class="cls-2" x="19.75" width="8.95" height="8.95"/>
    <rect class="cls-2" x="34.41" y="26.84" width="8.95" height="8.95"/>
    <rect class="cls-2" x="34.41" y="17.89" width="8.95" height="8.95"/>
    <rect class="cls-2" x="34.41" y="8.95" width="8.95" height="8.95"/>
    <rect class="cls-2" x="34.41" width="8.95" height="8.95"/>
    <rect class="cls-2" x="49.07" y="26.84" width="8.95" height="8.95"/>
    <rect class="cls-2" x="49.07" y="17.89" width="8.95" height="8.95"/>
    <rect class="cls-2" x="49.07" y="8.95" width="8.95" height="8.95"/>
    <rect class="cls-2" x="49.07" width="8.95" height="8.95"/>
    <rect class="cls-2" x="59" y="26.84" width="8.95" height="8.95"/>
    <rect class="cls-2" x="59" width="8.95" height="8.95"/>
    <rect class="cls-2" x="68.97" y="17.89" width="8.95" height="8.95"/>
    <rect class="cls-2" x="68.97" y="8.95" width="8.95" height="8.95"/>
    <rect class="cls-2" x="84.06" y="26.84" width="8.95" height="8.95"/>
    <rect class="cls-2" x="84.06" y="17.89" width="8.95" height="8.95"/>
    <rect class="cls-2" x="84.06" y="8.95" width="8.95" height="8.95"/>
    <rect class="cls-2" x="84.06" width="8.95" height="8.95"/>
    <rect class="cls-2" x="93.92" y="17.89" width="8.95" height="8.95"/>
    <rect class="cls-2" x="93.92" width="8.95" height="8.95"/>
    <rect class="cls-2" x="103.79" y="26.84" width="8.95" height="8.95"/>
    <rect class="cls-2" x="103.79" y="17.89" width="8.95" height="8.95"/>
    <rect class="cls-2" x="103.79" y="8.95" width="8.95" height="8.95"/>
    <rect class="cls-2" x="103.79" width="8.95" height="8.95"/>
    <rect class="cls-2" x="118.87" y="26.84" width="8.95" height="8.95"/>
    <rect class="cls-2" x="118.87" y="8.95" width="8.95" height="8.95"/>
    <rect class="cls-2" x="118.87" width="8.95" height="8.95"/>
    <rect class="cls-2" x="128.72" y="26.84" width="8.95" height="8.95"/>
    <rect class="cls-2" x="128.72" y="17.89" width="8.95" height="8.95"/>
    <rect class="cls-2" x="128.72" width="8.95" height="8.95"/>
    <text class="cls-1" transform="translate(2.18 45.99)"><tspan x="0" y="0">single-cell mosaic integration</tspan></text>
  </g>
</svg>